<svg preserveAspectRatio="none meet" width="18" height="18" viewBox="0 0 18 18" fill="none" xmlns="http://www.w3.org/2000/svg">
<g clip-path="url(#clip0_1203_14818)">
<path d="M3 14V13.0833H15.0036V14H3ZM13.1569 12.1667H4.84671C4.35693 12.1667 3.88721 11.9735 3.54089 11.6297C3.19456 11.2859 3 10.8196 3 10.3333L3 4.83333C3 4.3471 3.19456 3.88079 3.54089 3.53697C3.88721 3.19315 4.35693 3 4.84671 3H13.1569C13.6467 3 14.1164 3.19315 14.4627 3.53697C14.809 3.88079 15.0036 4.3471 15.0036 4.83333V10.3333C15.0036 10.8196 14.809 11.2859 14.4627 11.6297C14.1164 11.9735 13.6467 12.1667 13.1569 12.1667ZM13.1855 6.08733L12.9676 5.29533L12.156 5.50754L10.5323 5.93196L10.7497 6.72396L11.9007 6.42329L9.98194 8.29421L7.94133 6.52504L7.95149 6.51496L7.35639 5.93333L4.38503 8.83367L4.97921 9.41346L7.34854 7.10254L9.8993 9.314L9.91085 9.30438L10.023 9.41346L12.5516 6.94763L12.8088 7.88354L13.6186 7.67133L13.1832 6.08733H13.1855Z" fill="#A3B4CC"/>
</g>
<defs>
<clipPath id="clip0_1203_14818">
<rect width="12" height="11" fill="white" transform="translate(3 3)"/>
</clipPath>
</defs>
</svg>
